#!OML:ASF Y:\EmotionMaleHayes\Project 1\Capture day 1\Session 1\Male1.ASF
:FULLY-SPECIFIED
:DEGREES
689
root -5.83255 16.3118 1.33478 300.222 79.8031 289.33
lowerback 11.478 4.3223 7.02776
upperback 6.63677 6.7657 3.8679
thorax 0.890353 3.65256 -0.57074
lowerneck -20.0397 -0.257773 6.37152
upperneck 18.8236 -2.8229 2.98017
head 9.22533 -0.44149 -0.386017
rclavicle 3.53837e-014 9.93923e-014
rhumerus -6.98261 39.3861 -82.2255
rradius 63.5224
rwrist 0.127118
rhand -12.3684 -26.6905
rfingers 7.12502
rthumb 13.7019 -56.2194
lclavicle 3.53837e-014 9.93923e-014
lhumerus -62.1605 -13.5315 101.041
lradius 48.3694
lwrist 8.53369
lhand -24.898 -36.1664
lfingers 7.12502
lthumb 1.61007 -6.19269
rfemur 12.7267 -6.38787 25.6399
rtibia 3.16408
rfoot -21.1648 10.2155
rtoes 7.36696
lfemur -38.6883 5.00737 -3.24833
ltibia 15.3292
lfoot -4.06875 18.7453
ltoes 20.4863
690
root -5.70629 16.3037 1.32242 301.417 80.103 290.227
lowerback 11.3443 4.19399 6.36118
upperback 6.56405 6.50526 3.59597
thorax 0.823266 3.49963 -0.462076
lowerneck -20.5437 -0.0777656 6.22118
upperneck 18.0744 -2.5583 2.98056
head 9.05907 -0.361034 -0.327144
rclavicle -1.43125e-014 1.66979e-014
rhumerus -8.28213 39.4975 -83.401
rradius 62.8911
rwrist 0.957194
rhand -11.935 -26.478
rfingers 7.12502
rthumb 14.1196 -55.9783
lclavicle -1.43125e-014 1.66979e-014
lhumerus -61.6094 -13.6909 100.338
lradius 47.5874
lwrist 8.57625
lhand -25.2311 -36.0649
lfingers 7.12502
lthumb 1.28836 -6.08902
rfemur 12.8966 -6.18551 25.1755
rtibia 3.11475
rfoot -20.8996 10.047
rtoes 5.9898
lfemur -39.7331 5.36981 -3.85612
ltibia 17.3567
lfoot -3.71326 19.0727
ltoes 18.1099
691
root -5.58642 16.3008 1.31498 302.905 80.3344 291.393
lowerback 11.2519 4.11959 5.69454
upperback 6.42515 6.32208 3.32565
thorax 0.671842 3.38158 -0.364574
lowerneck -20.8101 0.0550528 6.06052
upperneck 17.2995 -2.32864 2.98795
head 8.84164 -0.296759 -0.26818
rclavicle 2.90226e-014 -6.20208e-014
rhumerus -9.76745 39.3093 -84.7124
rradius 62.1255
rwrist 1.60735
rhand -11.9295 -25.9453
rfingers 7.12502
rthumb 14.1249 -55.4451
lclavicle 2.90226e-014 -6.20208e-014
lhumerus -61.061 -13.986 99.6221
lradius 46.7756
lwrist 8.71093
lhand -25.2325 -35.7471
lfingers 7.12502
lthumb 1.28701 -5.77122
rfemur 12.8969 -5.63183 24.937
rtibia 3.21649
rfoot -20.6965 9.57411
rtoes 4.87013
lfemur -40.7344 5.99537 -4.48874
ltibia 19.3163
lfoot -3.31478 18.8844
ltoes 16.7744
692
root -5.46963 16.3044 1.31406 305.221 80.626 293.385
lowerback 10.7962 4.1143 5.04538
upperback 6.31685 6.19972 2.92085
thorax 0.772398 3.30145 -0.383613
lowerneck -20.1034 0.0974303 5.91886
upperneck 15.9474 -2.13916 3.13045
head 8.26167 -0.262937 -0.171006
rclavicle -3.16068e-014 1.27222e-014
rhumerus -11.2805 38.8787 -86.1522
rradius 61.0562
rwrist 2.18722
rhand -12.1981 -25.4562
rfingers 7.12502
rthumb 13.8661 -54.974
lclavicle -3.16068e-014 1.27222e-014
lhumerus -60.5422 -14.5288 98.7287
lradius 45.9343
lwrist 8.72931
lhand -24.8671 -35.1383
lfingers 7.12502
lthumb 1.63995 -5.16485
rfemur 12.8207 -4.70404 24.6986
rtibia 3.3506
rfoot -20.4058 8.94285
rtoes 5.21235
lfemur -41.6084 6.62091 -5.22455
ltibia 21.0703
lfoot -3.41456 18.3194
ltoes 15.974
693
root -5.34316 16.3168 1.31231 307.612 81.0154 295.548
lowerback 11.0676 4.12063 4.19524
upperback 5.93143 6.13009 2.53417
thorax 0.168901 3.22371 -0.359312
lowerneck -20.0939 0.0886951 5.76918
upperneck 15.2068 -2.10148 3.26433
head 8.01296 -0.269129 -0.0971689
rclavicle 1.53064e-014 -9.14409e-015
rhumerus -13.2128 38.3162 -87.7811
rradius 59.8043
rwrist 2.7595
rhand -12.6154 -25.1255
rfingers 7.12502
rthumb 13.4639 -54.6703
lclavicle 1.53064e-014 -9.14409e-015
lhumerus -60.3914 -15.1605 97.9876
lradius 45.1368
lwrist 8.77708
lhand -24.4866 -34.2225
lfingers 7.12502
lthumb 2.00738 -4.25219
rfemur 12.9349 -3.86909 24.2809
rtibia 3.37309
rfoot -20.1176 8.26757
rtoes 5.03957
lfemur -42.1414 7.05254 -6.07034
ltibia 22.428
lfoot -3.85017 17.5737
ltoes 16.2878
694
root -5.21337 16.3345 1.30383 309.244 81.1839 297.057
lowerback 10.722 4.04949 3.49083
upperback 6.13892 5.94389 2.33558
thorax 0.513673 3.12583 -0.119414
lowerneck -20.6013 0.201327 5.65698
upperneck 14.2752 -1.90054 3.15983
head 7.78606 -0.222859 -0.0892369
rclavicle 3.89618e-014 3.77691e-014
rhumerus -13.9516 37.9457 -88.5238
rradius 58.3747
rwrist 2.90344
rhand -12.7425 -24.9622
rfingers 7.12502
rthumb 13.3414 -54.5151
lclavicle 3.89618e-014 3.77691e-014
lhumerus -59.2292 -15.8099 97.2669
lradius 44.197
lwrist 9.11434
lhand -24.1683 -33.4328
lfingers 7.12502
lthumb 2.3148 -3.4656
rfemur 13.1422 -3.44997 23.9643
rtibia 3.49098
rfoot -19.6677 7.8981
rtoes 4.12679
lfemur -42.3497 7.33503 -6.5834
ltibia 23.4392
lfoot -4.20602 16.9552
ltoes 17.56
695
root -5.0822 16.3565 1.28966 310.972 81.2239 298.71
lowerback 10.6821 4.01994 2.99384
upperback 6.23023 5.85219 2.10989
thorax 0.601018 3.0727 -0.0620119
lowerneck -21.2773 0.243686 5.49741
upperneck 13.5919 -1.80132 3.04832
head 7.6694 -0.214542 -0.0883026
rclavicle -7.55382e-015 -4.94974e-014
rhumerus -14.9905 37.0283 -89.5095
rradius 56.8167
rwrist 3.04943
rhand -12.491 -24.8121
rfingers 7.12502
rthumb 13.5838 -54.349
lclavicle -7.55382e-015 -4.94974e-014
lhumerus -58.1659 -16.468 96.506
lradius 43.1886
lwrist 9.24072
lhand -23.7005 -32.921
lfingers 7.12502
lthumb 2.7666 -2.95918
rfemur 13.3311 -3.20938 23.6602
rtibia 3.74632
rfoot -19.0488 7.8125
rtoes 3.51902
lfemur -42.3649 7.55086 -6.96712
ltibia 24.2091
lfoot -4.17211 16.6856
ltoes 16.7266
